<svg width="13" height="16" viewBox="0 0 13 16" fill="none" xmlns="http://www.w3.org/2000/svg">
<path d="M10.8088 1.80026C9.75559 0.773661 8.29801 0.208252 6.70461 0.208252C4.27061 0.208252 2.7736 1.22127 1.94637 2.07104C0.926879 3.11828 0.342266 4.5088 0.342266 5.88615C0.342266 7.6155 1.0547 8.94284 2.24776 9.43664C2.32786 9.46996 2.40845 9.48675 2.48746 9.48675C2.73915 9.48675 2.93858 9.31954 3.00767 9.05132C3.04794 8.89744 3.14126 8.51783 3.18183 8.35302C3.26869 8.02758 3.19851 7.87104 3.0091 7.64441C2.66404 7.22987 2.50335 6.73967 2.50335 6.10171C2.50335 4.20676 3.89308 2.1928 6.46881 2.1928C8.51254 2.1928 9.78209 3.37217 9.78209 5.27063C9.78209 6.46864 9.52794 7.57812 9.06631 8.39481C8.74552 8.96228 8.18144 9.63872 7.31548 9.63872C6.941 9.63872 6.60462 9.48254 6.39236 9.21026C6.19185 8.95286 6.12577 8.62035 6.20641 8.2738C6.29751 7.88227 6.42173 7.47384 6.54195 7.079C6.76121 6.35786 6.96849 5.67675 6.96849 5.13334C6.96849 4.20385 6.40569 3.57931 5.56815 3.57931C4.50375 3.57931 3.66986 4.67696 3.66986 6.07821C3.66986 6.76543 3.84975 7.27943 3.93118 7.4768C3.79709 8.05363 3.00017 11.483 2.84901 12.1297C2.7616 12.5072 2.23508 15.4888 3.10657 15.7266C4.08574 15.9937 4.96099 13.0898 5.05006 12.7617C5.12226 12.4948 5.37489 11.4857 5.52971 10.8653C6.00239 11.3276 6.76348 11.6402 7.50405 11.6402C8.90014 11.6402 10.1557 11.0023 11.0394 9.84416C11.8965 8.72086 12.3685 7.15521 12.3685 5.43583C12.3685 4.09166 11.8 2.76652 10.8088 1.80026Z" fill="#666666"/>
</svg>
